<svg width="128" height="128" viewBox="0 0 128 128" fill="none" xmlns="http://www.w3.org/2000/svg">
	<g id="app icon">
		<g id="Perry">
			<g id="Shadow" opacity="0.25" filter="url(#filter0_f_8324_67000)">
				<path id="Vector 16" d="M33.3908 58.061L64.0746 41.0947L81.3341 50.8097V44.9302H94.5185V58.2309V101.983H33.3908V58.061Z" fill="black"/>
				<path id="Vector 16 (Stroke)" fill-rule="evenodd" clip-rule="evenodd" d="M63.4941 40.0442C63.8579 39.8431 64.2998 39.8448 64.662 40.0486L80.1351 48.758V44.9286C80.1351 44.2666 80.6718 43.73 81.3337 43.73H94.5181C95.1801 43.73 95.7167 44.2666 95.7167 44.9286V57.5285L104.695 62.582C105.272 62.9067 105.476 63.6375 105.151 64.2144C104.827 64.7912 104.096 64.9956 103.519 64.671L95.7167 60.2793V101.981C95.7167 102.643 95.1801 103.18 94.5181 103.18H33.3904C32.7285 103.18 32.1918 102.643 32.1918 101.981V60.0918L23.9023 64.6754C23.323 64.9957 22.5937 64.7857 22.2734 64.2065C21.9531 63.6272 22.1631 62.8979 22.7424 62.5776L63.4941 40.0442ZM34.589 58.7663V100.783H93.3195V58.93L64.0689 42.4656L34.589 58.7663ZM93.3195 56.1792V46.1272H82.5323V50.1073L93.3195 56.1792Z" fill="black"/>
				<path id="Vector 18 (Stroke)" fill-rule="evenodd" clip-rule="evenodd" d="M66.0345 27.1113C66.733 27.1113 67.2992 27.6776 67.2992 28.376V33.9408C67.2992 34.6393 66.733 35.2055 66.0345 35.2055C65.336 35.2055 64.7698 34.6393 64.7698 33.9408V28.376C64.7698 27.6776 65.336 27.1113 66.0345 27.1113ZM51.5878 28.4947C52.2208 28.1993 52.9733 28.473 53.2687 29.1059L56.8099 36.6942C57.1053 37.3271 56.8316 38.0797 56.1987 38.3751C55.5657 38.6705 54.8132 38.3968 54.5178 37.7638L50.9766 30.1756C50.6812 29.5426 50.9549 28.7901 51.5878 28.4947ZM81.4067 28.5884C81.9878 28.9759 82.1449 29.7611 81.7574 30.3423L76.6986 37.9306C76.3112 38.5117 75.5259 38.6688 74.9448 38.2813C74.3636 37.8939 74.2065 37.1087 74.594 36.5275L79.6528 28.9392C80.0403 28.358 80.8255 28.201 81.4067 28.5884ZM90.3751 32.9753C90.9083 33.4265 90.9748 34.2245 90.5236 34.7577L87.7412 38.046C87.29 38.5792 86.492 38.6457 85.9588 38.1945C85.4256 37.7433 85.3591 36.9453 85.8103 36.4121L88.5927 33.1238C89.0438 32.5906 89.8418 32.5241 90.3751 32.9753ZM43.5649 37.1986C44.1405 36.8029 44.9279 36.9487 45.3236 37.5243L48.106 41.5714C48.5017 42.1469 48.3559 42.9343 47.7803 43.33C47.2047 43.7258 46.4173 43.5799 46.0216 43.0044L43.2393 38.9573C42.8436 38.3817 42.9894 37.5943 43.5649 37.1986ZM31.5529 39.825C32.075 39.3609 32.8744 39.4079 33.3384 39.93L39.409 46.7594C39.8731 47.2815 39.826 48.0809 39.304 48.5449C38.7819 49.009 37.9825 48.9619 37.5185 48.4399L31.4479 41.6104C30.9838 41.0884 31.0309 40.289 31.5529 39.825Z" fill="#293250"/>
			</g>
			<g id="Icon" filter="url(#filter1_diiii_8324_67000)">
				<path id="Vector 16_2" d="M32.0025 53.0557L64.3791 35.1533L82.5909 45.4043V39.2004H96.5028V53.2349V99.4007H32.0025V53.0557Z" fill="#FFC23E"/>
				<path id="Vector 16 (Stroke)_2" fill-rule="evenodd" clip-rule="evenodd" d="M63.7674 34.0486C64.1512 33.8363 64.6176 33.8381 64.9997 34.0532L81.3265 43.2431V39.2024C81.3265 38.5039 81.8927 37.9377 82.5912 37.9377H96.5031C97.2015 37.9377 97.7678 38.5039 97.7678 39.2024V52.4975L107.241 57.8298C107.85 58.1724 108.065 58.9436 107.723 59.5523C107.38 60.1609 106.609 60.3766 106 60.034L97.7678 55.4001V99.4027C97.7678 100.101 97.2015 100.667 96.5031 100.667H32.0028C31.3043 100.667 30.7381 100.101 30.7381 99.4027V55.2022L21.9912 60.0387C21.3799 60.3767 20.6104 60.1552 20.2724 59.5439C19.9344 58.9326 20.156 58.1631 20.7672 57.8251L63.7674 34.0486ZM33.2675 53.8036V98.138H95.2383V53.9763L64.3739 36.6035L33.2675 53.8036ZM95.2383 51.0738V40.4671H83.8559V44.6669L95.2383 51.0738Z" fill="#293250"/>
				<path id="Ellipse 9 (Stroke)" fill-rule="evenodd" clip-rule="evenodd" d="M52.491 58.423C50.16 58.423 48.191 60.4165 48.191 62.9759C48.191 63.5347 47.738 63.9877 47.1792 63.9877C46.6205 63.9877 46.1675 63.5347 46.1675 62.9759C46.1675 59.3887 48.9548 56.3994 52.491 56.3994C56.0273 56.3994 58.8146 59.3887 58.8146 62.9759C58.8146 63.5347 58.3616 63.9877 57.8028 63.9877C57.244 63.9877 56.7911 63.5347 56.7911 62.9759C56.7911 60.4165 54.822 58.423 52.491 58.423Z" fill="#293250"/>
				<path id="Ellipse 11" d="M63.8738 87.2598C71.4174 87.2598 77.5327 81.1445 77.5327 73.6009L50.2149 73.6009C50.2149 81.1445 56.3302 87.2598 63.8738 87.2598Z" fill="white"/>
				<path id="Ellipse 11 (Stroke)" fill-rule="evenodd" clip-rule="evenodd" d="M77.5326 71.5792C78.6502 71.5792 79.5562 72.4852 79.5562 73.6027C79.5562 82.2639 72.5349 89.2852 63.8737 89.2852C55.2126 89.2852 48.1913 82.2639 48.1913 73.6027C48.1913 72.4852 49.0973 71.5792 50.2148 71.5792L77.5326 71.5792ZM50.3637 75.6263C51.3415 82.2103 57.0177 87.2616 63.8737 87.2616C70.7298 87.2616 76.406 82.2103 77.3838 75.6263C77.4818 74.966 77.5326 74.2903 77.5326 73.6027L50.2148 73.6027C50.2148 74.2903 50.2657 74.966 50.3637 75.6263Z" fill="#293250"/>
				<path id="Ellipse 10 (Stroke)" fill-rule="evenodd" clip-rule="evenodd" d="M75.2557 58.423C72.9247 58.423 70.9557 60.4165 70.9557 62.9759C70.9557 63.5347 70.5027 63.9877 69.9439 63.9877C69.3851 63.9877 68.9321 63.5347 68.9321 62.9759C68.9321 59.3887 71.7194 56.3994 75.2557 56.3994C78.7919 56.3994 81.5792 59.3887 81.5792 62.9759C81.5792 63.5347 81.1263 63.9877 80.5675 63.9877C80.0087 63.9877 79.5557 63.5347 79.5557 62.9759C79.5557 60.4165 77.5867 58.423 75.2557 58.423Z" fill="#293250"/>
				<path id="Vector 18 (Stroke)_2" fill-rule="evenodd" clip-rule="evenodd" d="M64.1268 23.7715C64.8252 23.7715 65.3915 24.3377 65.3915 25.0362V30.6009C65.3915 31.2994 64.8252 31.8656 64.1268 31.8656C63.4283 31.8656 62.8621 31.2994 62.8621 30.6009V25.0362C62.8621 24.3377 63.4283 23.7715 64.1268 23.7715ZM49.6801 25.1548C50.3131 24.8595 51.0656 25.1331 51.361 25.7661L54.9022 33.3543C55.1976 33.9873 54.9239 34.7399 54.291 35.0352C53.658 35.3306 52.9054 35.057 52.6101 34.424L49.0689 26.8357C48.7735 26.2028 49.0472 25.4502 49.6801 25.1548ZM79.499 25.2486C80.0801 25.6361 80.2372 26.4213 79.8497 27.0024L74.7909 34.5907C74.4034 35.1719 73.6182 35.3289 73.037 34.9415C72.4559 34.554 72.2988 33.7688 72.6863 33.1876L77.7451 25.5994C78.1326 25.0182 78.9178 24.8612 79.499 25.2486ZM88.4673 29.6355C89.0005 30.0866 89.0671 30.8846 88.6159 31.4179L85.8335 34.7061C85.3823 35.2393 84.5843 35.3058 84.0511 34.8546C83.5179 34.4035 83.4514 33.6055 83.9026 33.0722L86.6849 29.784C87.1361 29.2508 87.9341 29.1843 88.4673 29.6355ZM41.6572 33.8588C42.2328 33.4631 43.0202 33.6089 43.4159 34.1845L46.1983 38.2315C46.594 38.8071 46.4482 39.5945 45.8726 39.9902C45.297 40.3859 44.5096 40.2401 44.1139 39.6645L41.3315 35.6174C40.9358 35.0419 41.0816 34.2545 41.6572 33.8588ZM29.6452 36.4851C30.1673 36.0211 30.9666 36.0681 31.4307 36.5901L37.5013 43.4196C37.9653 43.9416 37.9183 44.741 37.3963 45.2051C36.8742 45.6691 36.0748 45.6221 35.6108 45.1L29.5402 38.2706C29.0761 37.7485 29.1231 36.9492 29.6452 36.4851Z" fill="#293250"/>
			</g>
		</g>
	</g>
	<defs>
		<filter id="filter0_f_8324_67000" x="18.3074" y="23.2952" width="90.8144" height="83.7007" filterUnits="userSpaceOnUse" color-interpolation-filters="sRGB">
			<feFlood flood-opacity="0" result="BackgroundImageFix"/>
			<feBlend mode="normal" in="SourceGraphic" in2="BackgroundImageFix" result="shape"/>
			<feGaussianBlur stdDeviation="1.90807" result="effect1_foregroundBlur_8324_67000"/>
		</filter>
		<filter id="filter1_diiii_8324_67000" x="10.5739" y="9.46093" width="106.852" height="110.287" filterUnits="userSpaceOnUse" color-interpolation-filters="sRGB">
			<feFlood flood-opacity="0" result="BackgroundImageFix"/>
			<feColorMatrix in="SourceAlpha" type="matrix" values="0 0 0 0 0 0 0 0 0 0 0 0 0 0 0 0 0 0 127 0" result="hardAlpha"/>
			<feOffset dy="9.54037"/>
			<feGaussianBlur stdDeviation="4.77019"/>
			<feComposite in2="hardAlpha" operator="out"/>
			<feColorMatrix type="matrix" values="0 0 0 0 1 0 0 0 0 1 0 0 0 0 1 0 0 0 0.25 0"/>
			<feBlend mode="overlay" in2="BackgroundImageFix" result="effect1_dropShadow_8324_67000"/>
			<feBlend mode="normal" in="SourceGraphic" in2="effect1_dropShadow_8324_67000" result="shape"/>
			<feColorMatrix in="SourceAlpha" type="matrix" values="0 0 0 0 0 0 0 0 0 0 0 0 0 0 0 0 0 0 127 0" result="hardAlpha"/>
			<feOffset dy="9.54037"/>
			<feGaussianBlur stdDeviation="9.54037"/>
			<feComposite in2="hardAlpha" operator="arithmetic" k2="-1" k3="1"/>
			<feColorMatrix type="matrix" values="0 0 0 0 1 0 0 0 0 1 0 0 0 0 1 0 0 0 0.5 0"/>
			<feBlend mode="overlay" in2="shape" result="effect2_innerShadow_8324_67000"/>
			<feColorMatrix in="SourceAlpha" type="matrix" values="0 0 0 0 0 0 0 0 0 0 0 0 0 0 0 0 0 0 127 0" result="hardAlpha"/>
			<feOffset dy="-14.3106"/>
			<feGaussianBlur stdDeviation="14.3106"/>
			<feComposite in2="hardAlpha" operator="arithmetic" k2="-1" k3="1"/>
			<feColorMatrix type="matrix" values="0 0 0 0 0 0 0 0 0 0 0 0 0 0 0 0 0 0 0.5 0"/>
			<feBlend mode="overlay" in2="effect2_innerShadow_8324_67000" result="effect3_innerShadow_8324_67000"/>
			<feColorMatrix in="SourceAlpha" type="matrix" values="0 0 0 0 0 0 0 0 0 0 0 0 0 0 0 0 0 0 127 0" result="hardAlpha"/>
			<feOffset dy="3.33913"/>
			<feGaussianBlur stdDeviation="3.57764"/>
			<feComposite in2="hardAlpha" operator="arithmetic" k2="-1" k3="1"/>
			<feColorMatrix type="matrix" values="0 0 0 0 1 0 0 0 0 1 0 0 0 0 1 0 0 0 0.7 0"/>
			<feBlend mode="overlay" in2="effect3_innerShadow_8324_67000" result="effect4_innerShadow_8324_67000"/>
			<feColorMatrix in="SourceAlpha" type="matrix" values="0 0 0 0 0 0 0 0 0 0 0 0 0 0 0 0 0 0 127 0" result="hardAlpha"/>
			<feOffset dy="-19.0807"/>
			<feGaussianBlur stdDeviation="4.77019"/>
			<feComposite in2="hardAlpha" operator="arithmetic" k2="-1" k3="1"/>
			<feColorMatrix type="matrix" values="0 0 0 0 0 0 0 0 0 0 0 0 0 0 0 0 0 0 0.15 0"/>
			<feBlend mode="overlay" in2="effect4_innerShadow_8324_67000" result="effect5_innerShadow_8324_67000"/>
		</filter>
	</defs>
</svg>
