<svg width="168" height="41" viewBox="0 0 168 41" fill="none" xmlns="http://www.w3.org/2000/svg">
<path d="M8.12821 29.8533V38.3675C8.12821 38.9505 7.64341 39.424 7.0416 39.4294H1.08661C0.484795 39.424 0 38.9496 0 38.3684V1.09204C0 0.509067 0.484795 0.0355115 1.08661 0.0301302H15.4819V0.00412054C19.3602 0.00412054 22.6758 0.81042 25.4285 2.42212C27.8553 3.8401 29.7842 5.93343 30.9628 8.42856C31.846 10.3147 32.2964 12.3632 32.2797 14.4341V14.5704C32.2519 16.6709 31.7736 18.7436 30.8773 20.6576C29.1722 24.3402 26.4185 26.96 22.6145 28.5179C20.9103 29.2058 18.6627 29.6498 15.8719 29.8498L8.12914 29.8533H8.12821ZM8.12821 7.86801V22.0271H15.4893C19.3853 22.0271 22.0452 20.5051 23.468 17.462C23.9073 16.531 24.1459 15.5238 24.171 14.5005V14.365C24.1784 13.4547 23.9778 12.5542 23.5822 11.7282C22.3646 9.17925 19.6667 7.89312 15.4893 7.86891H8.12821V7.86801ZM71.4719 29.0551L76.4397 31.9287C76.696 32.0794 76.8781 32.3261 76.9421 32.6095C77.0071 32.8929 76.9477 33.1898 76.7796 33.431C73.6739 37.7361 68.592 40.3056 63.1645 40.3155C58.5766 40.3155 54.6629 38.7487 51.4208 35.614C48.1795 32.4803 46.5598 28.6937 46.5607 24.2541C46.5607 19.8342 48.1804 16.0575 51.4208 12.9237C54.6611 9.76851 58.5757 8.19178 63.1636 8.19358C68.592 8.22945 73.6665 10.8044 76.7796 15.105C76.9486 15.3462 77.0081 15.6431 76.9431 15.9283C76.879 16.2126 76.697 16.4584 76.4397 16.6099L71.4719 19.4836C70.9732 19.7643 70.3361 19.6235 70.0111 19.1625C69.7473 18.7948 69.4585 18.4441 69.1464 18.1131C67.4989 16.4135 65.504 15.5642 63.1617 15.5642C60.8195 15.5642 58.8246 16.4135 57.177 18.1131C53.8828 21.5975 53.8828 26.9385 57.177 30.4229C58.7215 32.0346 60.89 32.9503 63.1617 32.9503C65.4334 32.9503 67.6019 32.0355 69.1464 30.4229C69.4585 30.0919 69.7473 29.7412 70.0111 29.3735C70.3361 28.9134 70.9741 28.7735 71.4719 29.0551ZM120.842 1.06603V38.3675C120.842 38.954 120.35 39.4294 119.743 39.4294H113.77C113.163 39.4294 112.672 38.954 112.672 38.3675V1.06603C112.672 0.47947 113.164 0.00412054 113.77 0.00412054H119.743C120.036 0.000533003 120.317 0.111747 120.524 0.311752C120.731 0.511757 120.845 0.783514 120.842 1.06603ZM134.846 30.831C136.419 32.2624 138.348 32.9781 140.633 32.9781C141.397 32.9745 142.158 32.9037 142.909 32.7655C145.623 32.2561 147.803 31.1467 149.447 29.4381C149.832 29.0345 150.472 28.9807 150.923 29.3161L154.862 32.335C155.311 32.6821 155.407 33.3055 155.082 33.7647C152.434 37.4715 148.377 39.6115 142.911 40.1837C142.109 40.2734 141.303 40.3182 140.495 40.32C135.681 40.32 131.644 38.7433 128.385 35.5907C125.126 32.4391 123.507 28.6524 123.525 24.2326C123.525 19.8136 125.146 16.035 128.385 12.9004C131.626 9.76492 135.536 8.1873 140.118 8.16757C142.989 8.16039 145.812 8.89404 148.293 10.2923C151.962 12.2995 154.367 14.9722 155.51 18.3086C155.677 18.7867 155.473 19.3123 155.023 19.5661L134.846 30.831ZM145.129 17.4333C143.782 16.4288 142.161 15.8243 140.464 15.6933C140.258 15.6763 140.054 15.6682 139.848 15.6682C138.498 15.6682 137.173 16.0045 135.997 16.6458C133.114 18.1687 131.673 20.6065 131.671 23.9572C131.671 24.2819 131.671 24.6093 131.699 24.9339L145.128 17.4333H145.129ZM109.619 37.5522L94.5406 22.0836L106.233 13.3426C106.589 13.0628 106.728 12.5982 106.581 12.1775C106.434 11.7569 106.033 11.469 105.574 11.4555H95.8538C95.616 11.4555 95.3848 11.5309 95.1944 11.6681L87.9475 17.0826V1.05527C87.9401 0.474088 87.4507 0.00591431 86.8498 0.00591431H80.8874C80.5995 0.00591431 80.3236 0.117128 80.1193 0.313546C79.9159 0.510861 79.8017 0.777235 79.8017 1.05617V38.3585C79.7989 38.6392 79.9113 38.9092 80.1147 39.1092C80.319 39.3083 80.5976 39.4213 80.8864 39.4213H86.8628C87.4692 39.4213 87.9605 38.946 87.9605 38.3585V27.0282L99.8835 38.9899C100.091 39.1998 100.377 39.3182 100.677 39.3191H108.837C109.263 39.3047 109.641 39.0536 109.809 38.6751C109.976 38.2966 109.902 37.8589 109.619 37.5513V37.5522ZM166.643 32.6283C168.208 34.1458 168.448 36.5226 167.214 38.3056C165.981 40.0868 163.618 40.7792 161.57 39.9577C159.522 39.1361 158.359 37.0302 158.791 34.9261C159.224 32.8229 161.131 31.3081 163.348 31.3063C164.588 31.2875 165.781 31.7655 166.643 32.6274V32.6283ZM36.3995 11.4555H42.375C42.974 11.4555 43.4597 11.9255 43.4597 12.5049V38.3657C43.4597 38.946 42.9731 39.4168 42.3731 39.4168H36.4014C35.8014 39.4168 35.3148 38.946 35.3148 38.3657V12.5076C35.3139 12.2296 35.4281 11.9605 35.6306 11.7632C35.8349 11.5668 36.1107 11.4555 36.3995 11.4555ZM39.3882 9.02409C41.6143 9.02589 43.5303 7.50567 43.9668 5.3944C44.4024 3.28403 43.235 1.16917 41.1788 0.344937C39.1226 -0.480197 36.7506 0.214888 35.5135 2.00417C34.2774 3.79436 34.5198 6.18007 36.094 7.70209C36.9558 8.56489 38.1483 9.04293 39.3882 9.02409Z" fill="#293250"/>
</svg>
